<svg width="28" height="28" viewBox="0 0 28 28" fill="none" xmlns="http://www.w3.org/2000/svg">
<path d="M21.471 21.7899C21.4005 21.9118 21.2835 21.981 21.1199 21.9975C20.9561 22.0139 20.8092 21.9502 20.6792 21.8063L18.9587 19.902H10.562C10.1439 19.902 9.78588 19.7372 9.48806 19.4076C9.19024 19.0782 9.04134 18.682 9.04134 18.2191V17.6338H18.3968C18.8239 17.6338 19.1897 17.4655 19.4939 17.1288C19.7982 16.792 19.9503 16.3872 19.9503 15.9143V9.32919H20.4793C20.8975 9.32919 21.2555 9.49398 21.5533 9.82357C21.8511 10.1532 22 10.5493 22 11.0121V21.1899C22 21.3654 21.9471 21.5093 21.8412 21.6215C21.7355 21.7337 21.6121 21.7899 21.471 21.7899ZM6.77419 17.8935C6.57436 17.8935 6.39537 17.8131 6.23722 17.6522C6.07907 17.4911 6 17.2787 6 17.0151V7.71953C6 7.24662 6.15213 6.84181 6.45639 6.50509C6.76066 6.16836 7.12644 6 7.55376 6H16.6778C17.1049 6 17.4707 6.16836 17.7749 6.50509C18.0792 6.84181 18.2313 7.24662 18.2313 7.71953V14.0119C18.2313 14.4848 18.0792 14.8896 17.7749 15.2264C17.4707 15.5631 17.1049 15.7315 16.6778 15.7315H9.04134L7.32083 17.6357C7.24033 17.7247 7.15409 17.7899 7.06213 17.8315C6.97002 17.8728 6.87404 17.8935 6.77419 17.8935Z" fill="#31566D"/>
<rect x="0.5" y="0.5" width="27" height="27" rx="1.5" stroke="#DDE1E4"/>
</svg>
