<svg width="28" height="28" viewBox="0 0 28 28" fill="none" xmlns="http://www.w3.org/2000/svg">
<path d="M18.964 22C18.2595 22 17.6614 21.7796 17.1696 21.3387C16.678 20.8979 16.4322 20.3626 16.4322 19.7328C16.4322 19.6486 16.4648 19.444 16.5299 19.1189L9.83671 15.5935C9.60988 15.804 9.34039 15.9689 9.02824 16.0882C8.71608 16.2075 8.38165 16.2672 8.02494 16.2672C7.32361 16.2672 6.72745 16.0458 6.23647 15.6032C5.74549 15.1605 5.5 14.6261 5.5 14C5.5 13.3739 5.74549 12.8395 6.23647 12.3968C6.72745 11.9542 7.32361 11.7328 8.02494 11.7328C8.38165 11.7328 8.71608 11.7925 9.02824 11.9118C9.34039 12.0311 9.60988 12.196 9.83671 12.4065L16.5299 8.88905C16.4925 8.78547 16.4669 8.684 16.4529 8.58463C16.4391 8.48526 16.4322 8.37944 16.4322 8.26716C16.4322 7.6374 16.6787 7.1021 17.1718 6.66126C17.6649 6.22042 18.2638 6 18.9682 6C19.6727 6 20.2707 6.22063 20.7624 6.66189C21.2541 7.10302 21.5 7.63874 21.5 8.26905C21.5 8.89937 21.2536 9.43453 20.7609 9.87453C20.2682 10.3144 19.67 10.5343 18.9661 10.5343C18.6077 10.5343 18.2744 10.4733 17.9661 10.3514C17.6577 10.2294 17.3901 10.0632 17.1633 9.85263L10.4701 13.3781C10.5075 13.4818 10.5331 13.5833 10.5471 13.6825C10.5609 13.7819 10.5678 13.8877 10.5678 14C10.5678 14.1123 10.5609 14.2181 10.5471 14.3175C10.5331 14.4167 10.5075 14.5182 10.4701 14.6219L17.1633 18.1474C17.3901 17.9368 17.6577 17.7706 17.9661 17.6486C18.2744 17.5267 18.6077 17.4657 18.9661 17.4657C19.67 17.4657 20.2682 17.6862 20.7609 18.1274C21.2536 18.5686 21.5 19.1044 21.5 19.7347C21.5 20.3651 21.2534 20.9001 20.7602 21.34C20.2672 21.78 19.6685 22 18.964 22Z" fill="#31566D"/>
<rect x="0.5" y="0.5" width="27" height="27" rx="1.5" stroke="#DDE1E4"/>
</svg>
