<svg width="28" height="28" viewBox="0 0 28 28" fill="none" xmlns="http://www.w3.org/2000/svg">
<path d="M19.5424 8.98377C18.5071 8.52788 17.4044 8.19196 16.2428 8C16.0997 8.23994 15.9313 8.56787 15.8219 8.83181C14.5929 8.65585 13.3724 8.65585 12.1687 8.83181C12.0508 8.56787 11.8825 8.23994 11.7394 8C10.5778 8.19196 9.47506 8.52788 8.43971 8.98377C6.35216 11.9751 5.78818 14.8944 6.06596 17.7658C7.45485 18.7496 8.79324 19.3414 10.1148 19.7333C10.4431 19.3094 10.7293 18.8535 10.9818 18.3816C10.502 18.2137 10.0475 17.9977 9.61816 17.7498C9.73601 17.6698 9.84544 17.5818 9.95486 17.5018C12.5895 18.6696 15.4431 18.6696 18.0441 17.5018C18.1535 17.5898 18.263 17.6698 18.3808 17.7498C17.9515 17.9977 17.4886 18.2057 17.0172 18.3816C17.2697 18.8535 17.5559 19.3094 17.8842 19.7333C19.2057 19.3414 20.5525 18.7496 21.933 17.7658C22.2613 14.4306 21.369 11.5432 19.5593 8.98377H19.5424ZM11.3353 16.0062C10.5441 16.0062 9.89594 15.3103 9.89594 14.4545C9.89594 13.5987 10.5273 12.9029 11.3353 12.9029C12.1434 12.9029 12.7832 13.5987 12.7747 14.4545C12.7747 15.3023 12.1434 16.0062 11.3353 16.0062ZM16.6468 16.0062C15.8556 16.0062 15.2074 15.3103 15.2074 14.4545C15.2074 13.5987 15.8387 12.9029 16.6468 12.9029C17.4549 12.9029 18.0946 13.5987 18.0862 14.4545C18.0862 15.3023 17.4549 16.0062 16.6468 16.0062Z" fill="#31566D"/>
<rect x="0.5" y="0.5" width="27" height="27" rx="1.5" stroke="#DDE1E4"/>
</svg>
