<svg width="28" height="28" viewBox="0 0 28 28" fill="none" xmlns="http://www.w3.org/2000/svg">
<rect x="0.5" y="0.5" width="27" height="27" rx="1.5" stroke="#DDE1E4"/>
<g clip-path="url(#clip0_40_60)">
<path d="M14 6C9.582 6 6 9.63809 6 14.1253C6 17.9326 8.58133 21.1184 12.0613 22C12.024 21.8903 12 21.763 12 21.6052V20.2165C11.6753 20.2165 11.1313 20.2165 10.9947 20.2165C10.4473 20.2165 9.96067 19.9775 9.72467 19.5333C9.46267 19.0397 9.41733 18.2847 8.768 17.8229C8.57533 17.6692 8.722 17.4939 8.944 17.5176C9.354 17.6354 9.694 17.9211 10.014 18.345C10.3327 18.7695 10.4827 18.8657 11.078 18.8657C11.3667 18.8657 11.7987 18.8488 12.2053 18.7837C12.424 18.2197 12.802 17.7004 13.264 17.4553C10.6 17.177 9.32867 15.8309 9.32867 14.0034C9.32867 13.2166 9.65867 12.4555 10.2193 11.8143C10.0353 11.1778 9.804 9.87981 10.29 9.38553C11.4887 9.38553 12.2133 10.175 12.3873 10.3883C12.9847 10.1804 13.6407 10.0626 14.33 10.0626C15.0207 10.0626 15.6793 10.1804 16.278 10.3897C16.45 10.1777 17.1753 9.38553 18.3767 9.38553C18.8647 9.88049 18.6307 11.1839 18.4447 11.819C19.002 12.4589 19.33 13.2179 19.33 14.0034C19.33 15.8295 18.0607 17.1749 15.4007 17.4546C16.1327 17.8426 16.6667 18.9327 16.6667 19.754V21.6052C16.6667 21.6757 16.6513 21.7265 16.6433 21.7867C19.7607 20.6769 22 17.6706 22 14.1253C22 9.63809 18.418 6 14 6Z" fill="#31566D"/>
</g>
<defs>
<clipPath id="clip0_40_60">
<rect width="16" height="16" fill="white" transform="translate(6 6)"/>
</clipPath>
</defs>
</svg>
