<svg width="28" height="28" viewBox="0 0 28 28" fill="none" xmlns="http://www.w3.org/2000/svg">
<g clip-path="url(#clip0_40_58)">
<path d="M14.6515 13.1825C14.6575 13.175 14.663 13.167 14.667 13.1585V13.1825H14.6515ZM22 6V22H6V6H22ZM10.9625 12.1425H8.5765V19.3195H10.9625V12.1425ZM11.1185 9.9235C11.1035 9.2185 10.601 8.6825 9.7845 8.6825C8.969 8.6825 8.4355 9.2185 8.4355 9.9235C8.4355 10.611 8.953 11.163 9.7535 11.163H9.769C10.601 11.163 11.1185 10.611 11.1185 9.9235ZM19.5645 15.204C19.5645 13 18.387 11.9745 16.8175 11.9745C15.552 11.9745 14.9855 12.67 14.667 13.1585V12.1425H12.282C12.3125 12.8155 12.282 19.3195 12.282 19.3195H14.667V15.3115C14.667 15.0945 14.6825 14.884 14.7455 14.7295C14.9185 14.3025 15.3115 13.8565 15.9695 13.8565C16.834 13.8565 17.1785 14.5135 17.1785 15.4795V19.3195H19.564L19.5645 15.204Z" fill="#31566D"/>
</g>
<rect x="0.5" y="0.5" width="27" height="27" rx="1.5" stroke="#DDE1E4"/>
<defs>
<clipPath id="clip0_40_58">
<rect x="6" y="6" width="16" height="16" rx="2" fill="white"/>
</clipPath>
</defs>
</svg>
