<svg width="28" height="28" viewBox="0 0 28 28" fill="none" xmlns="http://www.w3.org/2000/svg">
<path d="M13.632 19.5789C11.7568 18.1679 10.3494 16.7895 9.40973 15.4438C8.46991 14.098 8 12.7978 8 11.5434C8 9.92386 8.52435 8.59509 9.57306 7.55705C10.6216 6.51902 11.9746 6 13.632 6C15.2894 6 16.6424 6.51902 17.6909 7.55705C18.7396 8.59509 19.264 9.92386 19.264 11.5434C19.264 12.7978 18.7941 14.0966 17.8543 15.4396C16.9146 16.7827 15.5072 18.1625 13.632 19.5789ZM13.6335 12.996C14.0646 12.996 14.4331 12.8468 14.7391 12.5484C15.0453 12.25 15.1983 11.8913 15.1983 11.4722C15.1983 11.0533 15.0448 10.6951 14.7378 10.3977C14.4308 10.1001 14.0617 9.95137 13.6305 9.95137C13.1994 9.95137 12.8309 10.1006 12.5249 10.3989C12.2187 10.6973 12.0657 11.0561 12.0657 11.4752C12.0657 11.8941 12.2192 12.2523 12.5262 12.5497C12.8332 12.8472 13.2023 12.996 13.6335 12.996ZM8 22V20.7368H19.264V22H8Z" fill="#31566D"/>
<rect x="0.5" y="0.5" width="27" height="27" rx="1.5" stroke="#DDE1E4"/>
</svg>
