<svg width="344" height="69" viewBox="0 0 344 69" fill="none" xmlns="http://www.w3.org/2000/svg">
<mask id="path-1-inside-1_9_63" fill="white">
<path d="M22.8377 46.723C22.7455 47.3283 22.1792 47.7469 21.5793 47.6244C17.9514 46.8832 14.5618 45.2397 11.7277 42.8382C8.61113 40.1974 6.28853 36.7436 5.01837 32.8612C3.7482 28.9787 3.58029 24.82 4.53332 20.8478C5.48635 16.8756 7.52294 13.2458 10.4164 10.3623C13.3099 7.47883 16.9468 5.45483 20.9222 4.51558C24.8977 3.57633 29.0559 3.75866 32.9339 5.04228C36.8119 6.32591 40.2576 8.66047 42.8876 11.7861C45.2793 14.6286 46.911 18.0238 47.6396 21.6544C47.76 22.2546 47.3394 22.8194 46.7338 22.9096C46.1282 22.9998 45.5673 22.5811 45.4435 21.9815C44.7775 18.7567 43.3185 15.742 41.1911 13.2136C38.8253 10.4019 35.7256 8.30185 32.2372 7.14716C28.7487 5.99247 25.0082 5.82846 21.432 6.67336C17.8559 7.51827 14.5843 9.33896 11.9815 11.9328C9.37865 14.5266 7.54662 17.7919 6.68932 21.3651C5.83202 24.9383 5.98306 28.6793 7.12565 32.1717C8.26823 35.6642 10.3575 38.7711 13.161 41.1466C15.6821 43.2829 18.6917 44.7523 21.9141 45.4295C22.5133 45.5554 22.93 46.1177 22.8377 46.723Z"/>
</mask>
<path d="M22.8377 46.723C22.7455 47.3283 22.1792 47.7469 21.5793 47.6244C17.9514 46.8832 14.5618 45.2397 11.7277 42.8382C8.61113 40.1974 6.28853 36.7436 5.01837 32.8612C3.7482 28.9787 3.58029 24.82 4.53332 20.8478C5.48635 16.8756 7.52294 13.2458 10.4164 10.3623C13.3099 7.47883 16.9468 5.45483 20.9222 4.51558C24.8977 3.57633 29.0559 3.75866 32.9339 5.04228C36.8119 6.32591 40.2576 8.66047 42.8876 11.7861C45.2793 14.6286 46.911 18.0238 47.6396 21.6544C47.76 22.2546 47.3394 22.8194 46.7338 22.9096C46.1282 22.9998 45.5673 22.5811 45.4435 21.9815C44.7775 18.7567 43.3185 15.742 41.1911 13.2136C38.8253 10.4019 35.7256 8.30185 32.2372 7.14716C28.7487 5.99247 25.0082 5.82846 21.432 6.67336C17.8559 7.51827 14.5843 9.33896 11.9815 11.9328C9.37865 14.5266 7.54662 17.7919 6.68932 21.3651C5.83202 24.9383 5.98306 28.6793 7.12565 32.1717C8.26823 35.6642 10.3575 38.7711 13.161 41.1466C15.6821 43.2829 18.6917 44.7523 21.9141 45.4295C22.5133 45.5554 22.93 46.1177 22.8377 46.723Z" stroke="#FAE1A2" stroke-width="13.0806" mask="url(#path-1-inside-1_9_63)"/>
<mask id="path-2-inside-2_9_63" fill="white">
<path d="M38.8624 24.2563C39.5561 24.1723 40.0559 23.5401 39.9113 22.8566C39.4918 20.8734 38.657 18.9964 37.4564 17.3514C36.0065 15.365 34.0717 13.7833 31.8367 12.7574C29.6016 11.7314 27.1409 11.2955 24.6894 11.4911C22.238 11.6868 19.8775 12.5075 17.8335 13.8749C15.7894 15.2424 14.13 17.1109 13.0136 19.3022C11.8972 21.4935 11.361 23.9343 11.4563 26.3917C11.5516 28.8492 12.2752 31.2411 13.558 33.3394C14.6202 35.0769 16.0366 36.5649 17.7095 37.7094C18.2862 38.104 19.0613 37.8833 19.4036 37.2742C19.746 36.6651 19.525 35.8991 18.9558 35.4938C17.6564 34.5686 16.5533 33.3879 15.7167 32.0196C14.6595 30.2903 14.0632 28.319 13.9847 26.2937C13.9061 24.2684 14.348 22.2568 15.2681 20.4508C16.1882 18.6449 17.5558 17.1049 19.2404 15.978C20.925 14.851 22.8703 14.1746 24.8907 14.0133C26.9111 13.8521 28.9391 14.2114 30.7811 15.0569C32.6232 15.9024 34.2177 17.206 35.4126 18.8431C36.3581 20.1386 37.0284 21.6088 37.3877 23.163C37.5451 23.8437 38.1688 24.3403 38.8624 24.2563Z"/>
</mask>
<path d="M38.8624 24.2563C39.5561 24.1723 40.0559 23.5401 39.9113 22.8566C39.4918 20.8734 38.657 18.9964 37.4564 17.3514C36.0065 15.365 34.0717 13.7833 31.8367 12.7574C29.6016 11.7314 27.1409 11.2955 24.6894 11.4911C22.238 11.6868 19.8775 12.5075 17.8335 13.8749C15.7894 15.2424 14.13 17.1109 13.0136 19.3022C11.8972 21.4935 11.361 23.9343 11.4563 26.3917C11.5516 28.8492 12.2752 31.2411 13.558 33.3394C14.6202 35.0769 16.0366 36.5649 17.7095 37.7094C18.2862 38.104 19.0613 37.8833 19.4036 37.2742C19.746 36.6651 19.525 35.8991 18.9558 35.4938C17.6564 34.5686 16.5533 33.3879 15.7167 32.0196C14.6595 30.2903 14.0632 28.319 13.9847 26.2937C13.9061 24.2684 14.348 22.2568 15.2681 20.4508C16.1882 18.6449 17.5558 17.1049 19.2404 15.978C20.925 14.851 22.8703 14.1746 24.8907 14.0133C26.9111 13.8521 28.9391 14.2114 30.7811 15.0569C32.6232 15.9024 34.2177 17.206 35.4126 18.8431C36.3581 20.1386 37.0284 21.6088 37.3877 23.163C37.5451 23.8437 38.1688 24.3403 38.8624 24.2563Z" stroke="#CED9BF" stroke-width="28.1232" mask="url(#path-2-inside-2_9_63)"/>
<path d="M37.2796 42.1849C37.2796 42.1849 35.4423 37.4498 33.846 33.6825M33.3555 53.4668L22.237 27.7962C22.237 27.7962 20.2422 23.4487 24.1991 21.91C27.1422 20.7654 28.679 22.4174 29.7583 24.6896C30.6957 26.663 33.0328 31.6547 33.846 33.6825M33.846 33.6825C33.0285 31.5569 34.902 29.8902 36.2986 29.4313C37.7187 28.9647 39.4961 29.2678 40.2228 30.5758C40.9494 31.8839 42.1848 35.154 42.1848 35.154M44.4739 40.7133C44.4739 40.7133 42.7844 36.9526 42.1848 35.154M51.6683 39.4052C51.6683 39.4052 50.8633 37.5244 50.0332 35.4811M42.1848 35.154C41.5853 33.3555 41.2038 30.7393 43.8199 29.7583C46.436 28.7773 47.7671 30.4763 48.3981 31.8839C48.6017 32.3382 49.792 35.0456 50.0332 35.4811M50.0332 35.4811C48.8337 32.8649 49.3254 30.7358 51.6683 30.0853C53.6495 29.5352 54.9384 30.7394 55.9194 32.5379C56.9005 34.3365 59.4997 40.0593 61.4787 46.436C63.4577 52.8128 62.2962 55.2654 60.4976 57.718C58.6991 60.1706 55.2915 62.6303 52.4858 63.7678C46.436 66.2204 37.9337 63.4408 35.8081 62.9503C33.6825 62.4597 32.1942 61.9623 29.4313 60.9882C26.6684 60.0141 23.5552 59.0363 22.237 57.718C21.2559 56.737 21.0924 55.2654 21.583 53.9574C22.0735 52.6493 23.7085 51.3412 25.6706 51.8318C27.6327 52.3223 35.154 56.083 33.1919 52.9763" stroke="#31566D" stroke-width="1.63507" stroke-linecap="round"/>
<path d="M85.9458 46.3767C84.3971 46.3767 83.0472 46.0837 81.8961 45.4977C80.7659 44.9117 79.8869 44.0955 79.259 43.049C78.6521 42.0026 78.3381 40.7782 78.3172 39.376H81.0798C81.1008 40.6317 81.5193 41.72 82.3356 42.6409C83.1727 43.5409 84.3761 43.9908 85.9458 43.9908C87.3899 43.9908 88.4991 43.6455 89.2735 42.9548C90.0688 42.2433 90.4665 41.3956 90.4665 40.412C90.4665 39.5958 90.2781 38.9156 89.9014 38.3714C89.5247 37.8063 88.9072 37.3145 88.0492 36.8959C87.212 36.4564 86.0818 36.0064 84.6587 35.546C82.6495 34.9391 81.1845 34.1124 80.2636 33.0659C79.3427 32.0195 78.8823 30.7219 78.8823 29.1732C78.8823 28.1267 79.1544 27.1849 79.6985 26.3478C80.2427 25.5106 81.0275 24.8513 82.053 24.37C83.0785 23.8886 84.3238 23.6479 85.7888 23.6479C87.1701 23.6479 88.3736 23.9095 89.3991 24.4328C90.4455 24.9351 91.2513 25.6466 91.8164 26.5675C92.4024 27.4884 92.6954 28.5453 92.6954 29.7382H89.9328C89.9328 29.1522 89.7758 28.5767 89.4619 28.0116C89.1479 27.4465 88.677 26.9756 88.0492 26.5989C87.4213 26.2222 86.626 26.0338 85.6633 26.0338C84.5122 26.0338 83.5494 26.3164 82.7751 26.8814C82.0007 27.4256 81.6135 28.179 81.6135 29.1418C81.6135 29.8743 81.781 30.4917 82.1158 30.994C82.4716 31.4963 83.0472 31.9567 83.8425 32.3753C84.6378 32.7729 85.7156 33.202 87.076 33.6624C88.3526 34.081 89.4409 34.5728 90.3409 35.1379C91.2618 35.682 91.9629 36.3622 92.4442 37.1785C92.9465 37.9947 93.1977 39.0097 93.1977 40.2236C93.1977 41.4166 92.8942 42.4735 92.2873 43.3944C91.6803 44.3152 90.8327 45.0477 89.7444 45.5919C88.6561 46.1151 87.3899 46.3767 85.9458 46.3767ZM104.801 46.3767C103.399 46.3767 102.143 46.0523 101.034 45.4035C99.9454 44.7547 99.0769 43.8234 98.4281 42.6095C97.7793 41.3747 97.4549 39.9097 97.4549 38.2144C97.4549 36.5192 97.7793 35.0646 98.4281 33.8508C99.0769 32.616 99.9559 31.6742 101.065 31.0254C102.195 30.3766 103.441 30.0522 104.801 30.0522C106.726 30.0522 108.265 30.5335 109.416 31.4963C110.567 32.459 111.299 33.7461 111.613 35.3576H108.913C108.662 34.4996 108.181 33.8194 107.469 33.3171C106.758 32.7939 105.858 32.5322 104.77 32.5322C103.974 32.5322 103.221 32.7415 102.509 33.1601C101.798 33.5787 101.222 34.2066 100.783 35.0437C100.343 35.8809 100.123 36.9378 100.123 38.2144C100.123 39.4911 100.343 40.5585 100.783 41.4166C101.222 42.2537 101.798 42.8816 102.509 43.3002C103.221 43.7187 103.974 43.928 104.77 43.928C105.921 43.928 106.831 43.6664 107.501 43.1432C108.191 42.62 108.662 41.9293 108.913 41.0712H111.613C111.216 42.7246 110.431 44.0222 109.259 44.964C108.108 45.9058 106.622 46.3767 104.801 46.3767ZM123.374 46.3767C121.909 46.3767 120.611 46.0419 119.481 45.3721C118.351 44.7024 117.461 43.7606 116.812 42.5467C116.164 41.3119 115.839 39.8678 115.839 38.2144C115.839 36.5611 116.164 35.1274 116.812 33.9136C117.461 32.6787 118.351 31.7265 119.481 31.0568C120.611 30.387 121.909 30.0522 123.374 30.0522C124.839 30.0522 126.136 30.387 127.266 31.0568C128.397 31.7265 129.286 32.6787 129.935 33.9136C130.584 35.1274 130.908 36.5611 130.908 38.2144C130.908 39.8678 130.584 41.3119 129.935 42.5467C129.286 43.7606 128.397 44.7024 127.266 45.3721C126.136 46.0419 124.839 46.3767 123.374 46.3767ZM123.374 43.8653C124.274 43.8653 125.09 43.6664 125.822 43.2688C126.555 42.8711 127.13 42.2537 127.549 41.4166C127.988 40.5794 128.208 39.512 128.208 38.2144C128.208 36.9169 127.988 35.8495 127.549 35.0123C127.13 34.1752 126.555 33.5578 125.822 33.1601C125.09 32.7625 124.274 32.5636 123.374 32.5636C122.495 32.5636 121.689 32.7625 120.956 33.1601C120.224 33.5578 119.638 34.1752 119.198 35.0123C118.759 35.8495 118.539 36.9169 118.539 38.2144C118.539 40.1608 119.01 41.5945 119.952 42.5153C120.893 43.4153 122.034 43.8653 123.374 43.8653ZM143.83 46C142.407 46 141.287 45.6547 140.471 44.964C139.654 44.2734 139.246 43.0281 139.246 41.2282V32.6892H135.291V30.4289H137.645C138.713 30.4289 139.33 29.9057 139.497 28.8592L139.937 26.4419H141.883V30.4289H148.099V32.6892H141.883V41.2282C141.883 42.1072 142.082 42.7246 142.48 43.0804C142.898 43.4362 143.61 43.6141 144.615 43.6141H148.099V46H143.83ZM162.654 46C161.23 46 160.111 45.6547 159.294 44.964C158.478 44.2734 158.07 43.0281 158.07 41.2282V32.6892H154.115V30.4289H156.469C157.536 30.4289 158.154 29.9057 158.321 28.8592L158.761 26.4419H160.707V30.4289H166.923V32.6892H160.707V41.2282C160.707 42.1072 160.906 42.7246 161.304 43.0804C161.722 43.4362 162.434 43.6141 163.438 43.6141H166.923V46H162.654ZM198.48 27.6663C197.852 27.6663 197.329 27.457 196.911 27.0384C196.492 26.6198 196.283 26.1175 196.283 25.5315C196.283 24.9246 196.492 24.4223 196.911 24.0246C197.329 23.6061 197.852 23.3968 198.48 23.3968C199.087 23.3968 199.6 23.6061 200.019 24.0246C200.458 24.4223 200.678 24.9246 200.678 25.5315C200.678 26.1175 200.458 26.6198 200.019 27.0384C199.6 27.457 199.087 27.6663 198.48 27.6663ZM192.39 46V43.7397H197.35V33.474C197.35 32.9508 197.088 32.6892 196.565 32.6892H192.924V30.4289H197.193C199.056 30.4289 199.987 31.3602 199.987 33.2229V43.7397H204.947V46H192.39ZM210.837 46V30.4289H213.034L213.317 32.7834H213.474C213.893 32.03 214.552 31.3916 215.452 30.8684C216.352 30.3242 217.388 30.0522 218.56 30.0522C220.464 30.0522 221.887 30.6173 222.829 31.7474C223.792 32.8776 224.273 34.51 224.273 36.6448V46H221.636V36.9587C221.636 35.5774 221.333 34.4996 220.726 33.7252C220.119 32.9299 219.177 32.5322 217.9 32.5322C216.666 32.5322 215.619 32.9613 214.761 33.8194C213.903 34.6565 213.474 35.8704 213.474 37.461V46H210.837ZM253.821 46V26.4105H247.919V24.0246H262.36V26.4105H256.458V46H253.821ZM273.964 46.3767C272.499 46.3767 271.201 46.0419 270.071 45.3721C268.941 44.7024 268.051 43.7606 267.402 42.5467C266.754 41.3119 266.429 39.8678 266.429 38.2144C266.429 36.5611 266.754 35.1274 267.402 33.9136C268.051 32.6787 268.941 31.7265 270.071 31.0568C271.201 30.387 272.499 30.0522 273.964 30.0522C275.429 30.0522 276.726 30.387 277.856 31.0568C278.987 31.7265 279.876 32.6787 280.525 33.9136C281.174 35.1274 281.498 36.5611 281.498 38.2144C281.498 39.8678 281.174 41.3119 280.525 42.5467C279.876 43.7606 278.987 44.7024 277.856 45.3721C276.726 46.0419 275.429 46.3767 273.964 46.3767ZM273.964 43.8653C274.864 43.8653 275.68 43.6664 276.412 43.2688C277.145 42.8711 277.72 42.2537 278.139 41.4166C278.578 40.5794 278.798 39.512 278.798 38.2144C278.798 36.9169 278.578 35.8495 278.139 35.0123C277.72 34.1752 277.145 33.5578 276.412 33.1601C275.68 32.7625 274.864 32.5636 273.964 32.5636C273.085 32.5636 272.279 32.7625 271.546 33.1601C270.814 33.5578 270.228 34.1752 269.788 35.0123C269.349 35.8495 269.129 36.9169 269.129 38.2144C269.129 40.1608 269.6 41.5945 270.542 42.5153C271.484 43.4153 272.624 43.8653 273.964 43.8653ZM291.689 46.3767C289.805 46.3767 288.382 45.8116 287.419 44.6815C286.456 43.5513 285.975 41.9189 285.975 39.7841V30.4289H288.612V39.4702C288.612 40.8515 288.916 41.9398 289.522 42.7351C290.15 43.5095 291.092 43.8966 292.348 43.8966C293.604 43.8966 294.661 43.4781 295.519 42.6409C296.377 41.7828 296.806 40.5585 296.806 38.9679V30.4289H299.443V46H297.245L296.963 43.6455H296.806C296.387 44.3989 295.728 45.0477 294.828 45.5919C293.928 46.1151 292.882 46.3767 291.689 46.3767ZM311.862 46.3767C310.46 46.3767 309.204 46.0523 308.095 45.4035C307.007 44.7547 306.138 43.8234 305.489 42.6095C304.841 41.3747 304.516 39.9097 304.516 38.2144C304.516 36.5192 304.841 35.0646 305.489 33.8508C306.138 32.616 307.017 31.6742 308.126 31.0254C309.257 30.3766 310.502 30.0522 311.862 30.0522C313.788 30.0522 315.326 30.5335 316.477 31.4963C317.628 32.459 318.361 33.7461 318.675 35.3576H315.975C315.724 34.4996 315.242 33.8194 314.531 33.3171C313.819 32.7939 312.919 32.5322 311.831 32.5322C311.036 32.5322 310.282 32.7415 309.571 33.1601C308.859 33.5787 308.283 34.2066 307.844 35.0437C307.404 35.8809 307.185 36.9378 307.185 38.2144C307.185 39.4911 307.404 40.5585 307.844 41.4166C308.283 42.2537 308.859 42.8816 309.571 43.3002C310.282 43.7187 311.036 43.928 311.831 43.928C312.982 43.928 313.892 43.6664 314.562 43.1432C315.253 42.62 315.724 41.9293 315.975 41.0712H318.675C318.277 42.7246 317.492 44.0222 316.32 44.964C315.169 45.9058 313.683 46.3767 311.862 46.3767ZM323.623 46V23.3968H326.26V32.7834C326.678 31.9881 327.369 31.3393 328.332 30.837C329.294 30.3138 330.351 30.0522 331.502 30.0522C333.407 30.0522 334.851 30.6277 335.835 31.7788C336.839 32.9299 337.341 34.5414 337.341 36.6134V46H334.704V36.9587C334.704 35.5565 334.359 34.4682 333.668 33.6938C332.999 32.9194 332.057 32.5322 330.843 32.5322C330.006 32.5322 329.242 32.7206 328.551 33.0973C327.861 33.474 327.306 34.0287 326.887 34.7612C326.469 35.4937 326.26 36.3936 326.26 37.461V46H323.623Z" fill="#31566D"/>
</svg>
