<svg width="61" height="63" viewBox="0 0 61 63" fill="none" xmlns="http://www.w3.org/2000/svg">
<mask id="path-1-inside-1_9_64" fill="white">
<path d="M19.8377 43.723C19.7455 44.3283 19.1792 44.7469 18.5793 44.6244C14.9514 43.8832 11.5618 42.2397 8.72766 39.8382C5.61113 37.1974 3.28853 33.7436 2.01837 29.8612C0.748197 25.9787 0.580285 21.82 1.53332 17.8478C2.48635 13.8756 4.52294 10.2458 7.41642 7.36229C10.3099 4.47883 13.9468 2.45483 17.9222 1.51558C21.8977 0.576329 26.0559 0.758661 29.9339 2.04228C33.8119 3.32591 37.2576 5.66047 39.8876 8.78613C42.2793 11.6286 43.911 15.0238 44.6396 18.6544C44.76 19.2546 44.3394 19.8194 43.7338 19.9096C43.1282 19.9998 42.5673 19.5811 42.4435 18.9815C41.7775 15.7567 40.3185 12.742 38.1911 10.2136C35.8253 7.40191 32.7256 5.30185 29.2372 4.14716C25.7487 2.99247 22.0082 2.82846 18.432 3.67336C14.8559 4.51827 11.5843 6.33896 8.98149 8.9328C6.37865 11.5266 4.54662 14.7919 3.68932 18.3651C2.83202 21.9383 2.98306 25.6793 4.12565 29.1717C5.26823 32.6642 7.35753 35.7711 10.161 38.1466C12.6821 40.2829 15.6917 41.7523 18.9141 42.4295C19.5133 42.5554 19.93 43.1177 19.8377 43.723Z"/>
</mask>
<path d="M19.8377 43.723C19.7455 44.3283 19.1792 44.7469 18.5793 44.6244C14.9514 43.8832 11.5618 42.2397 8.72766 39.8382C5.61113 37.1974 3.28853 33.7436 2.01837 29.8612C0.748197 25.9787 0.580285 21.82 1.53332 17.8478C2.48635 13.8756 4.52294 10.2458 7.41642 7.36229C10.3099 4.47883 13.9468 2.45483 17.9222 1.51558C21.8977 0.576329 26.0559 0.758661 29.9339 2.04228C33.8119 3.32591 37.2576 5.66047 39.8876 8.78613C42.2793 11.6286 43.911 15.0238 44.6396 18.6544C44.76 19.2546 44.3394 19.8194 43.7338 19.9096C43.1282 19.9998 42.5673 19.5811 42.4435 18.9815C41.7775 15.7567 40.3185 12.742 38.1911 10.2136C35.8253 7.40191 32.7256 5.30185 29.2372 4.14716C25.7487 2.99247 22.0082 2.82846 18.432 3.67336C14.8559 4.51827 11.5843 6.33896 8.98149 8.9328C6.37865 11.5266 4.54662 14.7919 3.68932 18.3651C2.83202 21.9383 2.98306 25.6793 4.12565 29.1717C5.26823 32.6642 7.35753 35.7711 10.161 38.1466C12.6821 40.2829 15.6917 41.7523 18.9141 42.4295C19.5133 42.5554 19.93 43.1177 19.8377 43.723Z" stroke="#FAE1A2" stroke-width="13.0806" mask="url(#path-1-inside-1_9_64)"/>
<mask id="path-2-inside-2_9_64" fill="white">
<path d="M35.8624 21.2563C36.5561 21.1723 37.0559 20.5401 36.9113 19.8566C36.4918 17.8734 35.657 15.9964 34.4564 14.3514C33.0065 12.365 31.0717 10.7833 28.8367 9.75735C26.6016 8.73141 24.1409 8.29545 21.6894 8.4911C19.238 8.68675 16.8775 9.50747 14.8335 10.8749C12.7894 12.2424 11.13 14.1109 10.0136 16.3022C8.89716 18.4935 8.36101 20.9343 8.45631 23.3917C8.55162 25.8492 9.2752 28.2411 10.558 30.3394C11.6202 32.0769 13.0366 33.5649 14.7095 34.7094C15.2862 35.104 16.0613 34.8833 16.4036 34.2742C16.746 33.6651 16.525 32.8991 15.9558 32.4938C14.6564 31.5686 13.5533 30.3879 12.7167 29.0196C11.6595 27.2903 11.0632 25.319 10.9847 23.2937C10.9061 21.2684 11.348 19.2568 12.2681 17.4508C13.1882 15.6449 14.5558 14.1049 16.2404 12.978C17.925 11.851 19.8703 11.1746 21.8907 11.0133C23.9111 10.8521 25.9391 11.2114 27.7811 12.0569C29.6232 12.9024 31.2177 14.206 32.4126 15.8431C33.3581 17.1386 34.0284 18.6088 34.3877 20.163C34.5451 20.8437 35.1688 21.3403 35.8624 21.2563Z"/>
</mask>
<path d="M35.8624 21.2563C36.5561 21.1723 37.0559 20.5401 36.9113 19.8566C36.4918 17.8734 35.657 15.9964 34.4564 14.3514C33.0065 12.365 31.0717 10.7833 28.8367 9.75735C26.6016 8.73141 24.1409 8.29545 21.6894 8.4911C19.238 8.68675 16.8775 9.50747 14.8335 10.8749C12.7894 12.2424 11.13 14.1109 10.0136 16.3022C8.89716 18.4935 8.36101 20.9343 8.45631 23.3917C8.55162 25.8492 9.2752 28.2411 10.558 30.3394C11.6202 32.0769 13.0366 33.5649 14.7095 34.7094C15.2862 35.104 16.0613 34.8833 16.4036 34.2742C16.746 33.6651 16.525 32.8991 15.9558 32.4938C14.6564 31.5686 13.5533 30.3879 12.7167 29.0196C11.6595 27.2903 11.0632 25.319 10.9847 23.2937C10.9061 21.2684 11.348 19.2568 12.2681 17.4508C13.1882 15.6449 14.5558 14.1049 16.2404 12.978C17.925 11.851 19.8703 11.1746 21.8907 11.0133C23.9111 10.8521 25.9391 11.2114 27.7811 12.0569C29.6232 12.9024 31.2177 14.206 32.4126 15.8431C33.3581 17.1386 34.0284 18.6088 34.3877 20.163C34.5451 20.8437 35.1688 21.3403 35.8624 21.2563Z" stroke="#CED9BF" stroke-width="28.1232" mask="url(#path-2-inside-2_9_64)"/>
<path d="M34.2796 39.1849C34.2796 39.1849 32.4423 34.4498 30.846 30.6825M30.3555 50.4668L19.237 24.7962C19.237 24.7962 17.2422 20.4487 21.1991 18.91C24.1422 17.7654 25.679 19.4174 26.7583 21.6896C27.6957 23.663 30.0328 28.6547 30.846 30.6825M30.846 30.6825C30.0285 28.5569 31.902 26.8902 33.2986 26.4313C34.7187 25.9647 36.4961 26.2678 37.2228 27.5758C37.9494 28.8839 39.1848 32.154 39.1848 32.154M41.4739 37.7133C41.4739 37.7133 39.7844 33.9526 39.1848 32.154M48.6683 36.4052C48.6683 36.4052 47.8633 34.5244 47.0332 32.4811M39.1848 32.154C38.5853 30.3555 38.2038 27.7393 40.8199 26.7583C43.436 25.7773 44.7671 27.4763 45.3981 28.8839C45.6017 29.3382 46.792 32.0456 47.0332 32.4811M47.0332 32.4811C45.8337 29.8649 46.3254 27.7358 48.6683 27.0853C50.6495 26.5352 51.9384 27.7394 52.9194 29.5379C53.9005 31.3365 56.4997 37.0593 58.4787 43.436C60.4577 49.8128 59.2962 52.2654 57.4976 54.718C55.6991 57.1706 52.2915 59.6303 49.4858 60.7678C43.436 63.2204 34.9337 60.4408 32.8081 59.9503C30.6825 59.4597 29.1942 58.9623 26.4313 57.9882C23.6684 57.0141 20.5552 56.0363 19.237 54.718C18.2559 53.737 18.0924 52.2654 18.583 50.9574C19.0735 49.6493 20.7085 48.3412 22.6706 48.8318C24.6327 49.3223 32.154 53.083 30.1919 49.9763" stroke="#31566D" stroke-width="1.63507" stroke-linecap="round"/>
</svg>
